<?xml version="1.0" encoding="utf-8"?>
<!-- Generator: Adobe Illustrator 16.0.0, SVG Export Plug-In . SVG Version: 6.00 Build 0)  -->
<!DOCTYPE svg PUBLIC "-//W3C//DTD SVG 1.1//EN" "http://www.w3.org/Graphics/SVG/1.1/DTD/svg11.dtd">
<svg version="1.1" id="Capa_1" xmlns="http://www.w3.org/2000/svg" xmlns:xlink="http://www.w3.org/1999/xlink" x="0px" y="0px"
	 width="200px" height="80px" viewBox="0 0 200 80" enable-background="new 0 0 200 80" xml:space="preserve">
<line fill="none" x1="6" y1="59.93" x2="39.433" y2="4"/>
<line fill="none" stroke="#BFBFBF" stroke-miterlimit="10" x1="28.444" y1="3" x2="6" y2="58.93"/>
<g>
	<rect x="20.214" y="-0.537" fill="none" width="24.786" height="60.992"/>
	<path fill="#1AB5B3" d="M27.21,46.347v0.713c-0.82-0.101-1.441-0.151-1.863-0.151c-0.602,0-1.076,0.189-1.424,0.568
		s-0.521,0.892-0.521,1.539c0,1.003,0.311,1.879,0.933,2.626c0.621,0.748,1.319,1.122,2.093,1.122c0.415,0,0.79-0.104,1.126-0.309
		c0.337-0.205,0.806-0.658,1.407-1.359c1.079-1.285,1.924-2.129,2.534-2.529c0.609-0.401,1.203-0.602,1.782-0.602
		c0.852,0,1.673,0.304,2.463,0.911c0.789,0.608,1.44,1.504,1.952,2.688c0.513,1.185,0.769,2.434,0.769,3.75
		c0,1.298-0.289,2.393-0.867,3.284c-0.578,0.891-1.188,1.336-1.828,1.336c-0.344,0-0.629-0.116-0.855-0.35
		c-0.227-0.232-0.34-0.5-0.34-0.802c0-0.311,0.105-0.566,0.316-0.768c0.125-0.128,0.406-0.256,0.844-0.384
		c0.531-0.146,0.916-0.324,1.154-0.535c0.238-0.21,0.434-0.5,0.586-0.871c0.152-0.369,0.229-0.773,0.229-1.213
		c0-1.307-0.377-2.449-1.132-3.428c-0.754-0.979-1.589-1.467-2.504-1.467c-0.312,0-0.623,0.062-0.933,0.186
		c-0.309,0.123-0.658,0.35-1.049,0.678c-0.267,0.229-0.735,0.736-1.408,1.522c-0.656,0.776-1.105,1.267-1.349,1.467
		c-0.352,0.284-0.705,0.493-1.062,0.631c-0.355,0.138-0.709,0.206-1.061,0.206c-0.712,0-1.427-0.279-2.146-0.837
		s-1.292-1.282-1.718-2.173c-0.427-0.892-0.64-1.904-0.64-3.037c0-0.566,0.074-1.266,0.223-2.098
		c0.078-0.476,0.137-0.887,0.176-1.234c0.508,0.201,0.986,0.356,1.436,0.467C24.981,46.004,25.874,46.154,27.21,46.347z"/>
	<path fill="#1AB5B3" d="M27.175,32.409v-1.952l4.096,1.289c2.379,0.759,3.732,1.138,4.061,1.138c0.148,0,0.262-0.041,0.34-0.124
		c0.078-0.082,0.117-0.173,0.117-0.274c0-0.155-0.059-0.338-0.176-0.548c-0.18-0.301-0.633-0.873-1.359-1.714l0.434-0.452
		c1.633,1.837,2.449,3.19,2.449,4.058c0,0.293-0.096,0.542-0.287,0.748c-0.191,0.206-0.463,0.308-0.814,0.308
		c-0.406,0-0.949-0.099-1.629-0.297c0.797,0.813,1.496,1.818,2.098,3.014c0.398,0.795,0.598,1.484,0.598,2.069
		c0,0.32-0.09,0.571-0.27,0.753s-0.466,0.274-0.857,0.274c-0.305,0-0.633-0.041-0.985-0.123c-0.493-0.119-1.482-0.42-2.969-0.905
		c-1.885-0.612-3.016-0.918-3.392-0.918c-0.219,0-0.328,0.091-0.328,0.274c0,0.165,0.072,0.389,0.217,0.672s0.494,0.768,1.049,1.453
		l-0.41,0.604c-0.938-1.225-1.553-2.159-1.846-2.804s-0.439-1.163-0.439-1.556c0-0.219,0.068-0.397,0.205-0.535
		c0.138-0.137,0.351-0.206,0.64-0.206c0.54,0,1.866,0.329,3.979,0.987c1.9,0.585,2.984,0.877,3.25,0.877
		c0.164,0,0.306-0.062,0.423-0.185c0.117-0.123,0.176-0.258,0.176-0.404c0-0.511-0.361-1.237-1.084-2.178
		c-0.723-0.941-1.545-1.557-2.467-1.85L27.175,32.409z"/>
	<path fill="#1AB5B3" d="M36.726,22.738v2.043l-3.152-0.959c-1.547-0.466-3.016-0.873-4.406-1.221
		c-0.344-0.082-0.559-0.123-0.645-0.123c-0.188,0-0.281,0.101-0.281,0.302c0,0.137,0.08,0.347,0.24,0.63
		c0.16,0.284,0.557,0.795,1.189,1.536l-0.41,0.425c-0.805-0.877-1.408-1.752-1.811-2.625c-0.402-0.873-0.604-1.542-0.604-2.008
		c0-0.165,0.033-0.294,0.1-0.391c0.066-0.096,0.15-0.144,0.252-0.144c0.103,0,0.373,0.061,0.812,0.181l2.108,0.596
		c-1.247-0.925-2.313-1.969-3.2-3.132c-0.423-0.559-0.635-1.025-0.635-1.401c0-0.275,0.076-0.504,0.229-0.687
		s0.33-0.275,0.533-0.275c0.211,0,0.391,0.089,0.539,0.267s0.324,0.624,0.527,1.336c0.195,0.676,0.43,1.226,0.703,1.651
		s0.692,0.891,1.255,1.397s1.053,0.861,1.471,1.062s1.389,0.508,2.911,0.921L36.726,22.738z"/>
</g>
<line fill="none" stroke="#BFBFBF" stroke-miterlimit="10" x1="28.444" y1="3" x2="43.693" y2="29.208"/>
<line fill="none" stroke="#BFBFBF" stroke-miterlimit="10" x1="43" y1="28.5" x2="194" y2="28.5"/>
<g>
	<rect x="40.792" y="34.75" fill="none" width="155.208" height="22"/>
	<path fill="#30383B" d="M50.775,44.203h-5.57v6.97h-1.453V34.75h7.023c1.723,0,3.117,0.415,4.185,1.245s1.601,1.991,1.601,3.481
		c0,1.46-0.538,2.613-1.614,3.458C53.87,43.781,52.479,44.203,50.775,44.203z M50.614,35.854h-5.409V43.1h5.409
		c1.381,0,2.476-0.304,3.283-0.911c0.808-0.608,1.211-1.512,1.211-2.711s-0.408-2.104-1.224-2.711
		C53.067,36.158,51.977,35.854,50.614,35.854z"/>
	<path fill="#30383B" d="M73.444,51.169l-1.659-3.998h-8.975l-1.659,3.998l-1.55,0.004l7.05-16.422h1.292l7.051,16.422
		L73.444,51.169z M67.298,36.384l-4.014,9.682h8.027L67.298,36.384z"/>
	<path fill="#30383B" d="M84.789,35.854v15.318h-1.453V35.854h-5.705V34.75h12.89v1.104H84.789z"/>
	<path fill="#30383B" d="M107.001,51.169l-1.659-3.998h-8.975l-1.659,3.998l-1.55,0.004l7.05-16.422h1.292l7.05,16.422
		L107.001,51.169z M100.854,36.384l-4.014,9.682h8.027L100.854,36.384z"/>
	<path fill="#30383B" d="M124.185,49.396c-0.628,0.584-1.386,1.045-2.273,1.384c-0.889,0.338-1.808,0.507-2.759,0.507
		c-0.879,0-1.74-0.146-2.583-0.437c-0.844-0.291-1.624-0.744-2.342-1.357c-0.717-0.613-1.17-1.346-1.358-2.196
		s-0.282-2.296-0.282-4.336c0-1.717,0.049-3.043,0.148-3.979c0.099-0.935,0.725-1.894,1.878-2.875
		c1.152-0.981,2.675-1.472,4.566-1.472c1.693,0,3.134,0.427,4.323,1.282c1.188,0.854,1.937,2.014,2.242,3.479h-1.453
		c-0.288-1.127-0.884-2.019-1.785-2.674c-0.901-0.655-2.011-0.983-3.327-0.983c-1.443,0-2.575,0.349-3.396,1.047
		s-1.316,1.441-1.487,2.231c-0.172,0.79-0.257,2.104-0.257,3.944c0,1.596,0.049,2.818,0.147,3.669s0.462,1.545,1.09,2.081
		c0.628,0.537,1.256,0.917,1.884,1.139c0.628,0.223,1.292,0.334,1.991,0.334c1.633,0,2.897-0.47,3.795-1.408
		c0.896-0.938,1.345-2.085,1.345-3.439v-1.478h-5.14v-1.104h6.593v2.675c0,0.876-0.116,1.626-0.35,2.248
		C125.162,48.301,124.759,48.874,124.185,49.396z"/>
	<path fill="#30383B" d="M142.886,49.608c-1.31,1.119-2.906,1.679-4.79,1.679c-0.879,0-1.74-0.146-2.583-0.437
		c-0.844-0.291-1.624-0.744-2.342-1.357c-0.717-0.613-1.17-1.346-1.358-2.196s-0.282-2.296-0.282-4.336
		c0-1.717,0.049-3.043,0.147-3.979c0.099-0.935,0.722-1.894,1.87-2.875c1.148-0.981,2.664-1.472,4.548-1.472
		c0.879,0,1.74,0.146,2.584,0.437c0.843,0.292,1.623,0.744,2.341,1.357c0.717,0.614,1.171,1.346,1.358,2.197
		c0.188,0.851,0.283,2.296,0.283,4.335c0,1.718-0.05,3.044-0.148,3.979S143.872,48.766,142.886,49.608z M141.729,37.004
		c-0.467-0.398-1.014-0.709-1.642-0.932c-0.628-0.222-1.291-0.333-1.991-0.333c-1.436,0-2.561,0.349-3.377,1.047
		s-1.31,1.441-1.48,2.231c-0.17,0.79-0.255,2.104-0.255,3.944c0,1.596,0.049,2.818,0.147,3.669s0.462,1.545,1.09,2.081
		c0.628,0.537,1.256,0.917,1.884,1.139c0.628,0.223,1.292,0.334,1.991,0.334c1.436,0,2.561-0.349,3.377-1.047
		c0.816-0.697,1.31-1.44,1.48-2.23c0.17-0.79,0.256-2.104,0.256-3.945c0-1.594-0.05-2.817-0.148-3.668
		S142.518,37.679,141.729,37.004z"/>
	<path fill="#30383B" d="M163.768,51.173l-11.06-14.283v14.283h-1.453V34.75l1.445,0.004l11.068,14.252V34.75h1.453v16.422H163.768z
		"/>
	<path fill="#30383B" d="M172.567,51.173V34.75h1.453v16.422H172.567z"/>
	<path fill="#30383B" d="M192.654,51.169l-1.659-3.998h-8.976l-1.659,3.998l-1.55,0.004l7.051-16.422h1.292l7.05,16.422
		L192.654,51.169z M186.507,36.384l-4.014,9.682h8.027L186.507,36.384z"/>
</g>
<g>
	<rect x="82.208" y="53.535" fill="none" width="113.125" height="6.43"/>
	<path fill="#30383B" d="M85.32,58.533v-0.336c-0.164,0.138-0.336,0.234-0.516,0.289s-0.41,0.082-0.688,0.082
		c-0.29,0-0.524-0.023-0.704-0.07s-0.35-0.141-0.508-0.283c-0.159-0.143-0.238-0.347-0.238-0.612c0-0.308,0.122-0.548,0.365-0.718
		c0.243-0.17,0.58-0.256,1.011-0.256h1.278v-0.377c0-0.275-0.087-0.482-0.262-0.62s-0.458-0.206-0.852-0.206
		c-0.279,0-0.499,0.031-0.66,0.094c-0.161,0.063-0.304,0.174-0.43,0.333l-0.303-0.224c0.158-0.191,0.348-0.326,0.569-0.402
		c0.221-0.078,0.496-0.116,0.823-0.116c0.513,0,0.896,0.095,1.15,0.284s0.381,0.464,0.381,0.824v2.314H85.32z M85.32,56.916h-1.229
		c-0.672,0-1.007,0.227-1.007,0.68c0,0.438,0.344,0.658,1.032,0.658c0.218,0,0.404-0.017,0.557-0.049
		c0.153-0.033,0.299-0.107,0.438-0.221c0.139-0.115,0.209-0.326,0.209-0.634V56.916z"/>
	<path fill="#30383B" d="M90.03,55.691c-0.121-0.103-0.232-0.173-0.336-0.21c-0.104-0.038-0.24-0.056-0.41-0.056
		c-0.333,0-0.592,0.097-0.778,0.291c-0.186,0.193-0.279,0.438-0.279,0.732v2.084H87.81v-3.381h0.417v0.448
		c0.115-0.154,0.274-0.274,0.479-0.36c0.205-0.086,0.43-0.13,0.675-0.13c0.191,0,0.363,0.024,0.516,0.073s0.297,0.133,0.434,0.248
		L90.03,55.691z"/>
	<path fill="#30383B" d="M94.091,60.144v-2.052c-0.158,0.183-0.332,0.308-0.52,0.375c-0.188,0.068-0.405,0.102-0.651,0.102
		c-0.208,0-0.394-0.025-0.557-0.077c-0.164-0.052-0.319-0.14-0.467-0.266s-0.259-0.315-0.336-0.567s-0.115-0.525-0.115-0.818
		c0-0.312,0.037-0.59,0.111-0.83s0.184-0.424,0.332-0.549c0.147-0.127,0.306-0.217,0.475-0.27c0.169-0.055,0.355-0.081,0.557-0.081
		c0.246,0,0.462,0.034,0.651,0.102s0.362,0.192,0.52,0.374v-0.434h0.417v4.991H94.091z M92.978,55.426
		c-0.437,0-0.732,0.128-0.885,0.385c-0.153,0.256-0.229,0.6-0.229,1.029c0,0.429,0.075,0.771,0.225,1.028
		c0.15,0.257,0.446,0.386,0.889,0.386c0.437,0,0.731-0.129,0.884-0.386s0.229-0.6,0.229-1.028c0-0.43-0.075-0.773-0.225-1.029
		C93.716,55.554,93.42,55.426,92.978,55.426z"/>
	<path fill="#30383B" d="M99.186,58.533v-0.398c-0.295,0.289-0.683,0.434-1.163,0.434c-0.437,0-0.789-0.109-1.057-0.329
		s-0.401-0.529-0.401-0.931v-2.156h0.418v2.094c0,0.672,0.363,1.008,1.089,1.008c0.349,0,0.622-0.09,0.819-0.267
		c0.196-0.177,0.295-0.425,0.295-0.741v-2.094h0.417v3.381H99.186z"/>
	<path fill="#30383B" d="M101.658,53.977v-0.441h0.517v0.441H101.658z M101.708,58.533v-3.388h0.417v3.388H101.708z"/>
	<path fill="#30383B" d="M105.279,58.533c-0.301,0-0.534-0.08-0.701-0.242c-0.166-0.161-0.25-0.375-0.25-0.642v-2.231h-0.54v-0.266
		h0.54v-1.078h0.418v1.078h0.893v0.266h-0.893v2.238c0,0.375,0.202,0.562,0.606,0.562h0.286v0.314H105.279z"/>
	<path fill="#30383B" d="M107.596,56.916c0,0.432,0.109,0.763,0.328,0.992c0.219,0.23,0.537,0.346,0.958,0.346
		c0.409,0,0.772-0.139,1.089-0.414l0.312,0.211c-0.208,0.177-0.419,0.308-0.635,0.392s-0.479,0.126-0.79,0.126
		c-0.546,0-0.963-0.148-1.249-0.444s-0.431-0.725-0.431-1.284c0-0.547,0.14-0.971,0.418-1.274c0.279-0.304,0.666-0.455,1.164-0.455
		c0.49,0,0.877,0.146,1.158,0.438s0.422,0.694,0.422,1.208v0.16H107.596z M109.783,55.992c-0.088-0.178-0.223-0.316-0.406-0.416
		c-0.183-0.101-0.389-0.15-0.617-0.15c-0.23,0-0.436,0.05-0.619,0.15c-0.184,0.1-0.311,0.224-0.381,0.371
		c-0.07,0.146-0.115,0.259-0.135,0.336c-0.02,0.076-0.029,0.192-0.029,0.346h2.326c0-0.145-0.01-0.258-0.028-0.339
		C109.874,56.209,109.838,56.109,109.783,55.992z"/>
	<path fill="#30383B" d="M113.714,58.568c-0.535,0-0.958-0.154-1.27-0.462s-0.467-0.73-0.467-1.267c0-0.537,0.155-0.959,0.467-1.268
		s0.734-0.462,1.27-0.462c0.284,0,0.518,0.036,0.7,0.108c0.184,0.072,0.384,0.209,0.602,0.41l-0.286,0.224
		c-0.169-0.163-0.327-0.275-0.476-0.336c-0.146-0.062-0.327-0.091-0.54-0.091c-0.458,0-0.793,0.131-1.003,0.392
		c-0.211,0.261-0.315,0.603-0.315,1.022c0,0.232,0.019,0.421,0.058,0.562c0.037,0.143,0.143,0.32,0.314,0.533
		c0.172,0.212,0.488,0.318,0.946,0.318c0.213,0,0.394-0.031,0.54-0.092c0.148-0.061,0.307-0.172,0.476-0.336l0.286,0.225
		c-0.207,0.195-0.408,0.331-0.602,0.406C114.221,58.531,113.986,58.568,113.714,58.568z"/>
	<path fill="#30383B" d="M117.809,58.533c-0.3,0-0.533-0.08-0.699-0.242c-0.167-0.161-0.25-0.375-0.25-0.642v-2.231h-0.541v-0.266
		h0.541v-1.078h0.418v1.078h0.893v0.266h-0.893v2.238c0,0.375,0.201,0.562,0.605,0.562h0.287v0.314H117.809z"/>
	<path fill="#30383B" d="M122.51,58.533v-0.398c-0.295,0.289-0.683,0.434-1.163,0.434c-0.437,0-0.789-0.109-1.057-0.329
		s-0.401-0.529-0.401-0.931v-2.156h0.418v2.094c0,0.672,0.363,1.008,1.09,1.008c0.349,0,0.621-0.09,0.818-0.267
		c0.196-0.177,0.295-0.425,0.295-0.741v-2.094h0.418v3.381H122.51z"/>
	<path fill="#30383B" d="M127.252,55.691c-0.121-0.103-0.232-0.173-0.336-0.21c-0.104-0.038-0.24-0.056-0.41-0.056
		c-0.332,0-0.592,0.097-0.777,0.291c-0.186,0.193-0.279,0.438-0.279,0.732v2.084h-0.417v-3.381h0.417v0.448
		c0.115-0.154,0.275-0.274,0.48-0.36c0.204-0.086,0.43-0.13,0.675-0.13c0.191,0,0.363,0.024,0.517,0.073
		c0.152,0.049,0.297,0.133,0.434,0.248L127.252,55.691z"/>
	<path fill="#30383B" d="M131.216,58.533v-0.336c-0.164,0.138-0.336,0.234-0.517,0.289c-0.18,0.055-0.409,0.082-0.688,0.082
		c-0.289,0-0.523-0.023-0.704-0.07s-0.35-0.141-0.508-0.283c-0.159-0.143-0.237-0.347-0.237-0.612c0-0.308,0.121-0.548,0.364-0.718
		s0.58-0.256,1.011-0.256h1.278v-0.377c0-0.275-0.087-0.482-0.263-0.62c-0.174-0.138-0.458-0.206-0.852-0.206
		c-0.278,0-0.498,0.031-0.659,0.094c-0.161,0.063-0.304,0.174-0.43,0.333l-0.304-0.224c0.158-0.191,0.349-0.326,0.57-0.402
		c0.221-0.078,0.495-0.116,0.822-0.116c0.514,0,0.896,0.095,1.15,0.284s0.381,0.464,0.381,0.824v2.314H131.216z M131.216,56.916
		h-1.229c-0.672,0-1.007,0.227-1.007,0.68c0,0.438,0.344,0.658,1.031,0.658c0.219,0,0.404-0.017,0.557-0.049
		c0.153-0.033,0.299-0.107,0.438-0.221c0.14-0.115,0.209-0.326,0.209-0.634V56.916z"/>
	<path fill="#30383B" d="M137.088,59.443c-0.075,0.184-0.162,0.314-0.258,0.393c-0.098,0.078-0.21,0.135-0.339,0.17
		s-0.263,0.054-0.403,0.054h-0.213v-0.315h0.156c0.217,0,0.373-0.033,0.465-0.1c0.094-0.066,0.178-0.189,0.254-0.369l0.32-0.75
		l-1.44-3.373l0.462-0.001l1.184,2.956l1.186-2.956l0.461,0.001L137.088,59.443z"/>
	<path fill="#30383B" d="M144.459,58.568c-0.535,0-0.959-0.154-1.27-0.462c-0.312-0.308-0.467-0.73-0.467-1.267
		c0-0.537,0.155-0.959,0.467-1.268c0.311-0.309,0.734-0.462,1.27-0.462c0.283,0,0.518,0.036,0.699,0.108
		c0.184,0.072,0.385,0.209,0.603,0.41l-0.286,0.224c-0.17-0.163-0.328-0.275-0.476-0.336c-0.147-0.062-0.327-0.091-0.54-0.091
		c-0.459,0-0.793,0.131-1.004,0.392c-0.21,0.261-0.314,0.603-0.314,1.022c0,0.232,0.019,0.421,0.057,0.562
		c0.038,0.143,0.144,0.32,0.315,0.533c0.172,0.212,0.487,0.318,0.946,0.318c0.213,0,0.393-0.031,0.54-0.092s0.306-0.172,0.476-0.336
		l0.286,0.225c-0.208,0.195-0.408,0.331-0.603,0.406C144.965,58.531,144.731,58.568,144.459,58.568z"/>
	<path fill="#30383B" d="M149.962,58.197c-0.289,0.248-0.654,0.371-1.098,0.371c-0.441,0-0.783-0.103-1.023-0.309
		c-0.24-0.205-0.395-0.422-0.463-0.65s-0.103-0.485-0.103-0.77c0-0.299,0.033-0.559,0.099-0.777s0.22-0.434,0.463-0.641
		c0.242-0.207,0.586-0.312,1.027-0.312c0.443,0,0.783,0.103,1.023,0.308s0.395,0.423,0.463,0.651s0.104,0.485,0.104,0.771
		c0,0.299-0.033,0.557-0.1,0.776C150.29,57.836,150.159,58.029,149.962,58.197z M149.683,55.713
		c-0.223-0.191-0.496-0.287-0.818-0.287s-0.568,0.072-0.736,0.217c-0.17,0.145-0.285,0.299-0.344,0.462
		c-0.061,0.163-0.091,0.408-0.091,0.735c0,0.326,0.028,0.57,0.085,0.73c0.059,0.162,0.174,0.315,0.346,0.463
		c0.172,0.146,0.418,0.221,0.74,0.221s0.568-0.072,0.736-0.218c0.17-0.145,0.285-0.298,0.346-0.462
		c0.059-0.163,0.09-0.408,0.09-0.734c0-0.327-0.029-0.57-0.086-0.732C149.892,55.947,149.804,55.814,149.683,55.713z"/>
	<path fill="#30383B" d="M154.949,58.533v-2.098c0-0.674-0.363-1.01-1.089-1.01c-0.35,0-0.623,0.088-0.819,0.266
		s-0.295,0.426-0.295,0.744v2.098h-0.418v-3.381h0.418v0.398c0.295-0.293,0.683-0.44,1.163-0.44c0.437,0,0.789,0.11,1.057,0.329
		c0.268,0.221,0.401,0.531,0.401,0.934v2.16H154.949z"/>
	<path fill="#30383B" d="M158.635,58.568c-0.672,0-1.204-0.161-1.598-0.482l0.289-0.246c0.305,0.275,0.734,0.414,1.289,0.414
		c0.788,0,1.183-0.229,1.183-0.687c0-0.336-0.251-0.524-0.751-0.567l-0.653-0.049c-0.387,0-0.681-0.079-0.882-0.238
		c-0.202-0.158-0.303-0.373-0.303-0.644c0-0.294,0.129-0.527,0.386-0.7c0.256-0.172,0.601-0.259,1.031-0.259
		c0.273,0,0.527,0.03,0.762,0.091c0.235,0.061,0.442,0.149,0.623,0.266l-0.278,0.238c-0.305-0.187-0.672-0.279-1.102-0.279
		c-0.321,0-0.568,0.056-0.742,0.168c-0.175,0.111-0.262,0.271-0.262,0.48c0,0.336,0.267,0.524,0.8,0.566l0.637,0.049
		c0.37,0.027,0.655,0.105,0.854,0.23c0.198,0.126,0.298,0.342,0.298,0.649c0,0.303-0.143,0.545-0.43,0.727
		S159.115,58.568,158.635,58.568z"/>
	<path fill="#30383B" d="M163.033,58.533c-0.301,0-0.534-0.08-0.7-0.242c-0.167-0.161-0.25-0.375-0.25-0.642v-2.231h-0.54v-0.266
		h0.54v-1.078h0.418v1.078h0.893v0.266h-0.893v2.238c0,0.375,0.202,0.562,0.605,0.562h0.287v0.314H163.033z"/>
	<path fill="#30383B" d="M167.382,55.691c-0.12-0.103-0.231-0.173-0.336-0.21c-0.104-0.038-0.24-0.056-0.409-0.056
		c-0.333,0-0.593,0.097-0.778,0.291c-0.186,0.193-0.278,0.438-0.278,0.732v2.084h-0.418v-3.381h0.418v0.448
		c0.115-0.154,0.274-0.274,0.479-0.36c0.204-0.086,0.43-0.13,0.676-0.13c0.19,0,0.362,0.024,0.516,0.073s0.298,0.133,0.435,0.248
		L167.382,55.691z"/>
	<path fill="#30383B" d="M171.6,58.533v-0.398c-0.295,0.289-0.683,0.434-1.163,0.434c-0.437,0-0.789-0.109-1.057-0.329
		s-0.401-0.529-0.401-0.931v-2.156h0.418v2.094c0,0.672,0.363,1.008,1.089,1.008c0.35,0,0.623-0.09,0.819-0.267
		s0.295-0.425,0.295-0.741v-2.094h0.418v3.381H171.6z"/>
	<path fill="#30383B" d="M175.63,58.568c-0.535,0-0.959-0.154-1.27-0.462c-0.312-0.308-0.467-0.73-0.467-1.267
		c0-0.537,0.155-0.959,0.467-1.268c0.311-0.309,0.734-0.462,1.27-0.462c0.283,0,0.517,0.036,0.7,0.108
		c0.183,0.072,0.383,0.209,0.602,0.41l-0.286,0.224c-0.17-0.163-0.328-0.275-0.476-0.336c-0.147-0.062-0.327-0.091-0.54-0.091
		c-0.459,0-0.794,0.131-1.004,0.392s-0.315,0.603-0.315,1.022c0,0.232,0.02,0.421,0.058,0.562c0.038,0.143,0.144,0.32,0.315,0.533
		c0.172,0.212,0.487,0.318,0.946,0.318c0.213,0,0.393-0.031,0.54-0.092s0.306-0.172,0.476-0.336l0.286,0.225
		c-0.207,0.195-0.408,0.331-0.602,0.406C176.136,58.531,175.902,58.568,175.63,58.568z"/>
	<path fill="#30383B" d="M180.184,58.568c-0.535,0-0.959-0.154-1.27-0.462c-0.312-0.308-0.467-0.73-0.467-1.267
		c0-0.537,0.155-0.959,0.467-1.268c0.311-0.309,0.734-0.462,1.27-0.462c0.283,0,0.517,0.036,0.7,0.108
		c0.183,0.072,0.383,0.209,0.602,0.41l-0.286,0.224c-0.17-0.163-0.328-0.275-0.476-0.336c-0.147-0.062-0.327-0.091-0.54-0.091
		c-0.459,0-0.794,0.131-1.004,0.392s-0.315,0.603-0.315,1.022c0,0.232,0.02,0.421,0.058,0.562c0.038,0.143,0.144,0.32,0.315,0.533
		c0.172,0.212,0.487,0.318,0.946,0.318c0.213,0,0.393-0.031,0.54-0.092s0.306-0.172,0.476-0.336l0.286,0.225
		c-0.207,0.195-0.408,0.331-0.602,0.406C180.689,58.531,180.456,58.568,180.184,58.568z"/>
	<path fill="#30383B" d="M183.181,53.977v-0.441h0.517v0.441H183.181z M183.229,58.533v-3.388h0.418v3.388H183.229z"/>
	<path fill="#30383B" d="M188.21,58.197c-0.289,0.248-0.654,0.371-1.097,0.371s-0.784-0.103-1.024-0.309
		c-0.24-0.205-0.395-0.422-0.462-0.65c-0.068-0.229-0.103-0.485-0.103-0.77c0-0.299,0.032-0.559,0.098-0.777s0.22-0.434,0.463-0.641
		s0.586-0.312,1.028-0.312s0.783,0.103,1.023,0.308s0.395,0.423,0.463,0.651s0.103,0.485,0.103,0.771
		c0,0.299-0.033,0.557-0.099,0.776S188.407,58.029,188.21,58.197z M187.932,55.713c-0.224-0.191-0.497-0.287-0.818-0.287
		c-0.322,0-0.568,0.072-0.737,0.217s-0.284,0.299-0.344,0.462c-0.061,0.163-0.091,0.408-0.091,0.735c0,0.326,0.029,0.57,0.086,0.73
		c0.058,0.162,0.173,0.315,0.345,0.463c0.172,0.146,0.419,0.221,0.741,0.221c0.321,0,0.567-0.072,0.736-0.218
		c0.17-0.145,0.284-0.298,0.345-0.462c0.06-0.163,0.09-0.408,0.09-0.734c0-0.327-0.028-0.57-0.086-0.732
		C188.141,55.947,188.052,55.814,187.932,55.713z M187.203,54.389h-0.476l0.796-1.021l0.548-0.001L187.203,54.389z"/>
	<path fill="#30383B" d="M193.197,58.533v-2.098c0-0.674-0.363-1.01-1.089-1.01c-0.35,0-0.623,0.088-0.819,0.266
		s-0.295,0.426-0.295,0.744v2.098h-0.418v-3.381h0.418v0.398c0.295-0.293,0.683-0.44,1.163-0.44c0.437,0,0.789,0.11,1.057,0.329
		c0.268,0.221,0.401,0.531,0.401,0.934v2.16H193.197z"/>
</g>
<g>
</g>
<g>
</g>
<g>
</g>
<g>
</g>
<g>
</g>
<g>
</g>
<g>
</g>
<g>
</g>
<g>
</g>
<g>
</g>
<g>
</g>
<g>
</g>
<g>
</g>
<g>
</g>
<g>
</g>
</svg>
